External Loads File
version=1
nRows=85
nColumns=13
Range=5.000000e-03-10 seconds
endheader
time 	forceRightX 	forceRightY 	forceRightZ 	pointRightX 	pointRightY 	pointRightZ 	forceLeftX 	forceLeftY 	forceLeftZ 	pointLeftX 	pointLeftY 	pointLeftZ 		
2.505000 27.319205 -34.459753 -0.000000 0.069959 0.319483 -0.121761 -297.963189 676.828484 -0.000000 0.325507 0.289797 -0.366796
2.510000 23.580364 -35.977139 -0.000000 0.072822 0.328790 -0.121521 -281.427851 679.174645 -0.000000 0.323897 0.280066 -0.367954
2.515000 19.489336 -38.024138 -0.000000 0.075782 0.338162 -0.122125 -261.936206 682.231288 -0.000000 0.321306 0.270349 -0.366645
2.520000 14.726463 -40.842311 -0.000000 0.078595 0.347496 -0.123219 -241.403267 685.278135 -0.000000 0.318417 0.261036 -0.366619
2.525000 8.735185 -44.669374 -0.000000 0.082650 0.356735 -0.123583 -217.593343 688.901386 -0.000000 0.315077 0.251674 -0.366555
2.530000 1.245473 -49.535236 -0.000000 0.087629 0.365578 -0.123527 -191.951939 692.214569 -0.000000 0.311226 0.242537 -0.366405
2.535000 -7.960870 -55.409386 -0.000000 0.092576 0.374682 -0.123987 -164.509137 694.854404 -0.000000 0.306919 0.233675 -0.366322
2.540000 -18.774435 -62.225386 -0.000000 0.098291 0.383116 -0.124303 -137.142219 696.108778 -0.000000 0.302332 0.225081 -0.366244
2.545000 -31.135744 -69.837646 -0.000000 0.104395 0.391455 -0.124500 -108.682316 696.054452 -0.000000 0.297219 0.216506 -0.366059
2.550000 -44.802774 -78.007828 -0.000000 0.110870 0.399615 -0.124777 -78.757789 694.501855 -0.000000 0.290383 0.208577 -0.361493
2.555000 -57.144564 -87.952595 -0.000000 0.117645 0.407446 -0.125090 -65.558990 689.704380 -0.000000 0.291049 0.200976 -0.361784
2.560000 -72.401583 -96.437244 -0.000000 0.124804 0.415151 -0.125419 -31.059530 685.286401 -0.000000 0.279751 0.193699 -0.365705
2.565000 -85.808449 -106.064064 -0.000000 0.132079 0.422405 -0.125780 -9.254238 678.298730 -0.000000 0.273308 0.186976 -0.365583
2.570000 -98.332842 -115.659458 -0.000000 0.139619 0.429443 -0.126119 10.783434 669.719110 -0.000000 0.266570 0.180646 -0.365523
2.575000 -109.723741 -124.840475 -0.000000 0.147686 0.436162 -0.126272 29.467806 659.599708 -0.000000 0.259572 0.174765 -0.365446
2.580000 -120.275644 -132.734361 -0.000000 0.155979 0.442523 -0.125906 49.328591 647.844933 -0.000000 0.252255 0.165693 -0.365270
2.585000 -127.684742 -140.802089 -0.000000 0.163874 0.448329 -0.126364 60.193540 635.375396 -0.000000 0.244709 0.164746 -0.365104
2.590000 -134.828489 -145.794387 -0.000000 0.172272 0.453662 -0.126515 76.448626 621.032865 -0.000000 0.236835 0.154589 -0.364926
2.595000 -139.028132 -149.550568 -0.000000 0.180237 0.458444 -0.127411 86.937275 605.826502 -0.000000 0.228731 0.150874 -0.364668
2.600000 -141.565610 -150.433057 -0.000000 0.188887 0.462691 -0.127797 97.953332 588.730798 -0.000000 0.220386 0.147514 -0.364508
2.605000 -142.006709 -148.663124 -0.000000 0.197718 0.466310 -0.128004 108.090535 569.587083 -0.000000 0.211740 0.151072 -0.364297
2.610000 -140.673411 -144.102311 -0.000000 0.206283 0.469325 -0.128353 118.439560 547.967585 -0.000000 0.202921 0.149154 -0.364087
2.615000 -137.609976 -137.190362 -0.000000 0.214879 0.471733 -0.128546 128.378519 523.936092 -0.000000 0.193863 0.147765 -0.363972
2.620000 -133.164385 -128.277863 -0.000000 0.223569 0.473627 -0.128583 137.922957 497.583947 -0.000000 0.184603 0.146990 -0.363787
2.625000 -127.550408 -117.928764 -0.000000 0.232175 0.474819 -0.128585 146.292412 469.278547 -0.000000 0.175507 0.146849 -0.363490
2.630000 -121.368324 -106.270607 -0.000000 0.240793 0.475406 -0.128560 154.161055 438.933562 -0.000000 0.166236 0.147347 -0.363276
2.635000 -114.940361 -93.612282 -0.000000 0.249418 0.475405 -0.128446 161.229898 406.624635 -0.000000 0.156911 0.148343 -0.363149
2.640000 -108.515772 -80.187965 -0.000000 0.257904 0.474726 -0.128231 167.138138 372.369309 -0.000000 0.147656 0.150060 -0.362976
2.645000 -102.286884 -66.119730 -0.000000 0.266249 0.473405 -0.128131 171.579248 336.147463 -0.000000 0.138493 0.152346 -0.362759
2.650000 -96.336554 -51.517704 -0.000000 0.274343 0.471474 -0.127765 173.941403 298.218944 -0.000000 0.129614 0.155172 -0.362591
2.655000 -90.786557 -36.259049 -0.000000 0.282084 0.468862 -0.127483 173.959449 258.938500 -0.000000 0.121083 0.158793 -0.362450
2.660000 -85.712348 -20.133092 -0.000000 0.289463 0.465753 -0.126955 171.227990 219.130073 -0.000000 0.112886 0.162656 -0.362531
2.665000 -81.235490 -2.750905 -0.000000 0.295981 0.462118 -0.126818 165.643520 179.966150 -0.000000 0.105262 0.167202 -0.362232
2.670000 -77.508032 16.654017 -0.000000 0.302241 0.458247 -0.126277 157.912233 142.452529 -0.000000 0.097993 0.172344 -0.361843
2.675000 -74.590331 38.875584 -0.000000 0.307659 0.452874 -0.125824 148.699354 107.900367 -0.000000 0.091112 0.178008 -0.361402
2.680000 -72.651055 64.535796 -0.000000 0.312357 0.447433 -0.125348 138.567573 77.951261 -0.000000 0.084589 0.184151 -0.361045
2.685000 -71.791097 94.503467 -0.000000 0.316650 0.441391 -0.124852 128.501064 53.444252 -0.000000 0.078495 0.190731 -0.360715
2.690000 -72.228965 129.528985 -0.000000 0.320452 0.434781 -0.124684 119.120663 35.071555 -0.000000 0.072797 0.197547 -0.360346
2.695000 -74.730525 170.170032 -0.000000 0.322859 0.428494 -0.124212 110.792983 23.320056 -0.000000 0.067502 0.204750 -0.360054
2.700000 -79.372936 217.347341 -0.000000 0.324738 0.421930 -0.123890 103.886262 17.457614 -0.000000 0.062645 0.212239 -0.359740
2.705000 -86.546488 271.585613 -0.000000 0.326186 0.414847 -0.123516 98.542361 16.652646 -0.000000 0.058382 0.219946 -0.359551
2.710000 -96.638095 332.905104 -0.000000 0.327357 0.407221 -0.123158 94.895477 19.702959 -0.000000 0.054689 0.227845 -0.359499
2.715000 -108.908704 400.724625 -0.000000 0.328559 0.398568 -0.123092 93.099182 24.959293 -0.000000 0.051430 0.236077 -0.359523
2.720000 -122.710650 473.312352 -0.000000 0.329982 0.389227 -0.122999 93.134970 30.981005 -0.000000 0.048529 0.244630 -0.359618
2.725000 -137.292667 548.000707 -0.000000 0.331324 0.379507 -0.123602 94.673132 36.585896 -0.000000 0.046168 0.253507 -0.359963
2.730000 -150.479283 621.833102 -0.000000 0.332799 0.369264 -0.123465 97.128604 40.795440 -0.000000 0.044377 0.262612 -0.360323
2.735000 -161.825433 691.277296 -0.000000 0.333581 0.358830 -0.123474 99.613516 43.424926 -0.000000 0.043254 0.271765 -0.360572
2.740000 -170.214476 753.440471 -0.000000 0.333999 0.348444 -0.123294 101.371282 44.550394 -0.000000 0.042917 0.280975 -0.360836
2.745000 -175.088776 806.219438 -0.000000 0.334177 0.338091 -0.123101 101.898006 44.510460 -0.000000 0.043344 0.290089 -0.360979
2.750000 -176.164125 848.481042 -0.000000 0.334055 0.327835 -0.123091 100.985837 43.637799 -0.000000 0.044406 0.299164 -0.361223
2.755000 -172.451481 880.111724 -0.000000 0.333811 0.317480 -0.123179 98.659300 42.017605 -0.000000 0.045927 0.308328 -0.361590
2.760000 -165.415153 901.169758 -0.000000 0.333095 0.307453 -0.123425 94.889929 39.825653 -0.000000 0.048115 0.317608 -0.361956
2.765000 -154.677966 912.561262 -0.000000 0.332099 0.297394 -0.123357 89.748870 36.874848 -0.000000 0.051030 0.326827 -0.362280
2.770000 -140.321744 915.385886 -0.000000 0.330457 0.287367 -0.122803 83.308022 32.975332 -0.000000 0.054434 0.336080 -0.362433
2.775000 -120.806291 911.086622 -0.000000 0.328366 0.276525 -0.122785 75.758012 27.787587 -0.000000 0.058408 0.345128 -0.362639
2.780000 -99.857840 900.340930 -0.000000 0.326066 0.266358 -0.123276 67.167043 21.379301 -0.000000 0.062878 0.354509 -0.362665
2.785000 -79.312196 884.162434 -0.000000 0.323141 0.256502 -0.123108 57.676980 13.508573 -0.000000 0.067888 0.363227 -0.362853
2.790000 -57.080028 863.799414 -0.000000 0.319623 0.246769 -0.122903 47.350972 3.629422 -0.000000 0.073209 0.371952 -0.362995
2.795000 -35.142728 839.915538 -0.000000 0.315647 0.237285 -0.122730 35.962880 -8.442876 -0.000000 0.078786 0.380364 -0.361817
2.800000 -10.791459 813.219152 -0.000000 0.311186 0.228022 -0.122443 23.112038 -22.915326 -0.000000 0.085043 0.389323 -0.361887
2.805000 12.018746 784.012316 -0.000000 0.306197 0.218944 -0.122276 8.537896 -39.492371 -0.000000 0.091720 0.397492 -0.361873
2.810000 34.316471 752.690709 -0.000000 0.300611 0.210405 -0.122283 -7.822784 -57.881983 -0.000000 0.098721 0.405728 -0.361899
2.815000 55.785191 719.571640 -0.000000 0.294687 0.201890 -0.121988 -25.689627 -77.547841 -0.000000 0.106006 0.413898 -0.361733
2.820000 75.479517 685.057596 -0.000000 0.288306 0.193813 -0.121803 -44.419618 -97.770649 -0.000000 0.113636 0.421897 -0.361665
2.825000 92.439722 649.660544 -0.000000 0.281560 0.186203 -0.121618 -63.089145 -117.632984 -0.000000 0.121289 0.429739 -0.361629
2.830000 107.319835 613.742044 -0.000000 0.274374 0.178994 -0.121529 -80.891763 -135.886504 -0.000000 0.129321 0.437202 -0.362642
2.835000 119.074881 577.947298 -0.000000 0.266818 0.172683 -0.121370 -96.659363 -151.458355 -0.000000 0.137251 0.444589 -0.361931
2.840000 128.289703 542.662480 -0.000000 0.259023 0.166734 -0.121056 -109.632836 -163.347024 -0.000000 0.145259 0.451422 -0.361413
2.845000 135.399495 508.245634 -0.000000 0.250812 0.161615 -0.120730 -119.312752 -170.963841 -0.000000 0.153315 0.457792 -0.361231
2.850000 140.689449 475.101363 -0.000000 0.242475 0.156874 -0.120659 -125.546106 -174.256775 -0.000000 0.161534 0.463465 -0.361429
2.855000 144.813372 443.560769 -0.000000 0.233876 0.152569 -0.120469 -128.722632 -173.550183 -0.000000 0.169953 0.468590 -0.361332
2.860000 148.186286 414.001715 -0.000000 0.224982 0.149246 -0.119964 -129.448011 -169.567013 -0.000000 0.178657 0.473105 -0.361403
2.865000 151.291344 386.663711 -0.000000 0.215721 0.146289 -0.119834 -128.490623 -163.180224 -0.000000 0.187539 0.477110 -0.361565
2.870000 154.000552 361.813954 -0.000000 0.206572 0.144046 -0.120000 -126.388943 -155.427122 -0.000000 0.196732 0.479980 -0.362063
2.875000 156.645488 339.319072 -0.000000 0.197119 0.141575 -0.119917 -123.842406 -146.973909 -0.000000 0.205790 0.482447 -0.362299
2.880000 159.274788 318.952374 -0.000000 0.187682 0.140664 -0.120042 -121.358177 -138.252389 -0.000000 0.214869 0.484215 -0.362493
2.885000 161.800898 300.368478 -0.000000 0.178308 0.139329 -0.120231 -119.254487 -129.423337 -0.000000 0.223897 0.485260 -0.362894
2.890000 164.743631 282.695601 -0.000000 0.168858 0.140819 -0.120288 -117.940082 -120.163117 -0.000000 0.232910 0.485724 -0.363262
2.895000 167.299079 265.644545 -0.000000 0.159563 0.141862 -0.120389 -117.118788 -110.551451 -0.000000 0.241763 0.485511 -0.363505
2.900000 169.332927 248.544092 -0.000000 0.150447 0.143151 -0.120401 -116.740454 -100.361214 -0.000000 0.250547 0.484692 -0.363816
2.905000 170.341969 231.074503 -0.000000 0.141577 0.145095 -0.120414 -116.625931 -89.499539 -0.000000 0.258965 0.483335 -0.363948
2.910000 170.029322 213.055174 -0.000000 0.132977 0.147856 -0.120380 -116.735716 -77.732928 -0.000000 0.266988 0.481472 -0.364138
2.915000 167.854341 194.885876 -0.000000 0.124737 0.150928 -0.120326 -117.017938 -64.936714 -0.000000 0.274513 0.479598 -0.364211
2.920000 164.078682 176.752985 -0.000000 0.117038 0.154554 -0.120166 -117.780856 -50.555723 -0.000000 0.281551 0.476468 -0.364355
2.925000 159.135956 159.041032 -0.000000 0.109612 0.158950 -0.119975 -119.378233 -33.869305 -0.000000 0.288136 0.471945 -0.364493
